<svg width="1024" height="1024" viewBox="0 0 1024 1024" fill="none" xmlns="http://www.w3.org/2000/svg">
<path d="M511.062 356.154C559.822 356.154 610.714 335.351 656.724 308.679C703.393 281.626 748.592 246.423 786.781 213.176C820.25 184.04 871.373 202.388 879.06 238.759C890.939 294.97 903.765 358.371 913.607 413.898C923.639 470.496 930 515.918 930 537.905C930 741.001 745.909 912.78 512 912.78C278.091 912.78 94 741.001 94 537.905C94 516.021 100.305 470.821 110.253 414.487C120.014 359.219 132.736 296.104 144.526 240.113C152.18 203.766 203.221 185.368 236.731 214.413C274.788 247.4 319.789 282.298 366.221 309.109C411.996 335.542 462.605 356.154 511.062 356.154Z" fill="#1E1E1E" stroke="#3DD98D" stroke-width="64"/>
<path d="M820.858 572.414C820.858 638.688 767.132 692.414 700.858 692.414C634.584 692.414 580.858 638.688 580.858 572.414C580.858 506.14 634.584 452.414 700.858 452.414C767.132 452.414 820.858 506.14 820.858 572.414ZM640.858 572.414C640.858 605.551 667.721 632.414 700.858 632.414C733.995 632.414 760.858 605.551 760.858 572.414C760.858 539.277 733.995 512.414 700.858 512.414C667.721 512.414 640.858 539.277 640.858 572.414Z" fill="white"/>
<path d="M240.448 572.672H415.987" stroke="white" stroke-width="65" stroke-linecap="round"/>
</svg>
