<svg xmlns="http://www.w3.org/2000/svg" width="1556" height="1587"><path fill="#4285f4" d="M1555.26 810.89c0-65.22-5.3-112.82-16.75-162.17H793.5V943.1h437.3c-8.81 73.16-56.42 183.34-162.22 257.37l-1.49 9.86 235.56 182.43 16.32 1.63c149.88-138.39 236.29-341.99 236.29-583.5"/><path fill="#34a853" d="M793.5 1586.53c214.24 0 394.1-70.51 525.47-192.14l-250.39-193.92c-67.01 46.72-156.94 79.33-275.08 79.33-209.84 0-387.93-138.38-451.42-329.64l-9.3.79-244.94 189.5-3.2 8.9c130.48 259.13 398.51 437.18 708.86 437.18"/><path fill="#fbbc05" d="M342.08 950.16c-16.75-49.36-26.44-102.25-26.44-156.89 0-54.65 9.69-107.54 25.56-156.9l-.44-10.51L92.75 433.32l-8.11 3.85C30.86 544.71 0 665.46 0 793.27c0 127.8 30.86 248.55 84.64 356.08z"/><path fill="#eb4335" d="M793.5 306.73c149 0 249.51 64.34 306.82 118.11l223.94-218.59C1186.72 78.45 1007.74 0 793.5 0 483.15 0 215.12 178.04 84.64 437.17l256.56 199.2c64.37-191.26 242.46-329.64 452.3-329.64"/></svg>