<?xml version="1.0" encoding="UTF-8"?>
<svg id="Layer_2" data-name="Layer 2" xmlns="http://www.w3.org/2000/svg" xmlns:xlink="http://www.w3.org/1999/xlink" viewBox="0 0 3091.1 749.75">
  <defs>
    <style>
      .cls-1 {
        fill: url(#linear-gradient);
      }
    </style>
    <linearGradient id="linear-gradient" x1="979.4" y1="-565.46" x2="2076.66" y2="1335.04" gradientUnits="userSpaceOnUse">
      <stop offset="0" stop-color="#d20820"/>
      <stop offset=".17" stop-color="#cc0722"/>
      <stop offset=".39" stop-color="#bb072a"/>
      <stop offset=".64" stop-color="#a00637"/>
      <stop offset=".91" stop-color="#7b0549"/>
      <stop offset="1" stop-color="#6d0550"/>
    </linearGradient>
  </defs>
  <g id="Layer_1-2" data-name="Layer 1">
    <path class="cls-1" d="M990.53,304.3c-26.25-23.75-56.18-41.8-88.98-53.67-33.72-12.49-68.89-18.82-104.5-18.82s-70.3,6.33-104.04,18.83c-33.15,12.51-63.07,30.72-88.98,54.14-25.62,23.12-46.06,50.84-60.74,82.39-14.68,31.55-22.13,66.08-22.13,102.65,0,48.74,12.83,93.42,38.14,132.79,24.97,39.04,59.19,70.24,101.69,92.74,42.48,22.49,88.26,33.9,136.05,33.9,36.54,0,71.71-6.49,104.51-19.3,32.48-12.18,62.43-30.41,88.97-54.14,26.26-24.07,46.83-52.09,61.21-83.34,14.37-30.95,21.66-65.49,21.66-102.65s-7.45-71.08-22.13-102.65c-14.37-31.23-34.81-59.12-60.74-82.86ZM922.73,489.81c0,33.29-12.62,62.31-37.51,86.27-24.59,23.97-54.24,36.12-88.16,36.12s-63.13-12.15-87.7-36.11c-24.9-23.96-37.52-52.98-37.52-86.28,0-21.77,5.84-42.12,17.34-60.48,11.51-18.35,27.13-33.18,46.43-44.08,19.29-10.89,39.96-16.41,61.44-16.41s42.92,5.52,61.9,16.41c19.31,10.91,34.92,25.74,46.43,44.09,11.51,18.37,17.34,38.72,17.34,60.48ZM429.72,321.03c19.92,34.77,29.6,79.59,29.6,137.04v290.44l-6.02.02-6.77.02h-1.92s-124.57,0-124.57,0h-1.89s-6.81.03-6.81.03l-6.06.02v-280c0-29.01-6.7-51.06-19.91-65.54-13.2-14.45-32.02-21.78-55.94-21.78s-41.77,7.31-54.99,21.79c-13.53,14.47-20.39,36.52-20.39,65.53v279.88l-6,.04-6.75.04h-1.95s-124.53,0-124.53,0h-1.9s-6.84.06-6.84.06l-6.08.04V0l6.96,1.07,7.82,1.2,2.17.33,124.62,19.15,1.6.25,5.76.89,5.12.79v229.8c11.98-4.82,23.97-8.51,29.73-10.29l2.27-.7c22.17-7.01,45.26-10.56,68.66-10.56,13.69,0,27.39,1.24,40.72,3.69,20.91,3.84,41.87,10.72,60.59,19.9,32.9,16.12,58.38,38.77,73.71,65.52ZM1146.66,141.44c-7.17-12.46-10.66-25.35-10.66-39.4s3.31-26.95,10.15-38.87l.11-.19.06-.1c7.47-12.06,16.68-21.24,28.15-28.06,11.55-6.86,24.14-10.2,38.48-10.2s27.05,3.32,38.94,10.2c11.53,6.86,20.62,16.09,27.82,28.27,6.86,11.88,10.2,24.62,10.2,38.95s-3.34,27.85-10.2,39.41c-6.88,11.55-15.98,20.65-27.81,27.8-11.86,7.18-24.6,10.66-38.95,10.66s-26.93-3.33-38.49-10.2c-11.87-7.18-20.96-16.42-27.81-28.27ZM1283.95,231.8h6.04v517.08h-6.02s-6.78.03-6.78.03h-1.88s-124.61.32-124.61.32h-1.89s-6.81.02-6.81.02l-6.05.02V231.8h148.01ZM2946.69,142.13c-7.21-12.54-10.72-25.5-10.72-39.63s3.33-27.11,10.19-39.05l.16-.26.04-.07c7.52-12.14,16.78-21.38,28.31-28.23,11.62-6.91,24.28-10.26,38.71-10.26s27.21,3.34,39.17,10.26c11.6,6.89,20.74,16.18,27.98,28.44,6.9,11.95,10.26,24.76,10.26,39.17s-3.36,28.02-10.26,39.64c-6.92,11.62-16.07,20.77-27.97,27.97-11.92,7.22-24.74,10.73-39.18,10.73s-27.09-3.35-38.71-10.26c-11.93-7.22-21.08-16.52-27.98-28.44ZM1733.57,616.34h6.04v132.21h-102.06c-56.54,0-107.11-11.6-150.33-34.48-43.22-23.19-76.83-54-99.92-91.64-23.08-38.22-34.78-79.7-34.78-123.29,0-39.8,7.09-76.34,21.06-108.63,14.29-32.91,34.22-61.5,59.26-85.02,24.71-22.89,55.19-41.16,90.61-54.32,35.1-12.85,73.48-19.36,114.09-19.36h101.07v132.21h-101.07c-35.64,0-66.18,11.24-90.8,33.43-24.93,22.17-37.58,50.03-37.58,82.83,0,25.63,5.41,48.9,16.11,69.23,10.33,20.25,25.94,36.57,46.51,48.57,19.72,12.13,42.83,18.27,68.69,18.27h93.08ZM3091.1,231.8v517.55l-6.02.02-6.77.02h-1.88s-124.62.32-124.62.32h-1.89s-6.81.02-6.81.02l-6.05.02V231.8h154.05ZM2791.37,304.2c-26.21-23.72-56.1-41.74-88.86-53.6-33.68-12.47-68.81-18.8-104.36-18.8s-70.21,6.33-103.9,18.8c-33.1,12.49-62.98,30.68-88.86,54.07-25.58,23.08-45.99,50.77-60.66,82.28-14.67,31.51-22.1,66-22.1,102.51,0,48.67,12.82,93.29,38.09,132.61,24.94,38.99,59.11,70.15,101.55,92.62,42.43,22.46,88.14,33.85,135.88,33.85,36.49,0,71.61-6.48,104.37-19.27,32.44-12.17,62.35-30.37,88.85-54.07,26.22-24.03,46.77-52.02,61.13-83.23,14.35-30.91,21.63-65.4,21.63-102.51s-7.44-70.99-22.1-102.51c-14.35-31.19-34.76-59.04-60.66-82.75ZM2723.68,489.47c0,33.25-12.61,62.24-37.47,86.17-24.56,23.94-54.18,36.07-88.06,36.07s-63.05-12.14-87.6-36.07c-24.87-23.94-37.47-52.92-37.47-86.18,0-21.75,5.83-42.07,17.32-60.41,11.49-18.33,27.09-33.14,46.37-44.03,19.26-10.88,39.91-16.39,61.37-16.39s42.87,5.51,61.83,16.39c19.29,10.89,34.88,25.7,46.38,44.03,11.5,18.35,17.33,38.68,17.33,60.41ZM2231.18,321.03c19.92,34.77,29.6,79.59,29.6,137.04v290.44l-6.02.02-6.77.02h-1.92s-124.57,0-124.57,0h-1.89s-6.81.03-6.81.03l-6.06.02v-280c0-29.01-6.7-51.06-19.91-65.54-13.2-14.45-32.02-21.78-55.94-21.78s-41.77,7.31-54.99,21.79c-13.53,14.47-20.39,36.52-20.39,65.53v279.88l-6,.04-6.75.04h-1.95s-124.53,0-124.53,0h-1.9s-6.84.06-6.84.06l-6.08.04V0l6.96,1.07,7.82,1.2,2.17.33,124.62,19.15,1.6.25,5.76.89,5.12.79v229.8c11.98-4.82,23.97-8.51,29.73-10.29l2.27-.7c22.16-7.01,45.26-10.56,68.66-10.56,13.69,0,27.39,1.24,40.72,3.69,20.92,3.84,41.87,10.72,60.59,19.9,32.9,16.12,58.38,38.77,73.71,65.52Z"/>
  </g>
</svg>