<svg width="1235" height="1505" viewBox="0 0 1235 1505" fill="none" xmlns="http://www.w3.org/2000/svg">
<path d="M909.871 142.3C895.445 186.574 872.104 227.608 843.971 261.736V261.799C815.586 296.123 777.67 326.47 735.489 346.591C696.776 365.058 654.34 375.003 612.112 371.711L599.189 370.704L597.487 357.836C592 316.336 598.336 274.326 611.679 235.449C627.205 190.208 652.356 148.928 679.343 117.649L679.338 117.644C707.265 84.9296 744.717 56.4662 784.825 35.8429C825.069 15.1488 868.29 2.20863 907.628 0.605927L922.498 0L924.128 14.8559C928.893 58.304 923.098 101.704 909.871 142.3Z" fill="#424242"/>
<path d="M1183.28 532.612C1169.03 541.432 1031.24 626.692 1032.94 798.549C1034.75 1005.73 1210.42 1077.55 1220.12 1081.51H1220.18L1220.6 1081.69L1234.38 1087.4L1229.66 1101.5C1229.38 1102.34 1229.7 1101.45 1229.29 1102.76C1224.81 1117.12 1194.42 1214.47 1125.78 1314.77C1094.63 1360.27 1062.89 1405.7 1025.43 1440.74C986.63 1477.03 942.323 1501.52 887.589 1502.53C835.999 1503.5 802.225 1488.89 767.115 1473.7C733.636 1459.21 698.82 1444.15 644.336 1444.15C587.102 1444.15 550.516 1459.73 515.276 1474.75C482.103 1488.88 450.021 1502.55 403.802 1504.39H403.739C350.37 1506.37 304.091 1480.35 262.961 1441.82C223.612 1404.96 189.136 1356.68 157.72 1311.24C86.8032 1208.84 25.1281 1059.85 6.07312 908.35C-9.60008 783.734 3.50071 657.144 63.7487 552.597C97.3818 494.102 144.389 446.364 199.347 413.054C254.054 379.897 316.646 361.028 381.798 360.051V360.05C438.838 359.015 492.621 380.359 539.682 399.034C572.988 412.251 602.662 424.028 624.908 424.028C644.561 424.028 673.531 412.605 707.303 399.291C764.339 376.804 834.118 349.296 907.902 356.633C938.888 357.98 1003.43 365.403 1069.4 401.157C1111.43 423.934 1154.06 458.131 1189.1 509.418L1198.34 522.943L1184.54 531.855C1183.8 532.332 1184.52 531.846 1183.28 532.612Z" fill="#424242"/>
</svg>
