<svg width="63" height="63" viewBox="0 0 63 63" fill="none" xmlns="http://www.w3.org/2000/svg">
<path fill-rule="evenodd" clip-rule="evenodd" d="M31.8114 12.6509L11.5072 26.8721V33.3948H8.79801V28.7696L2.27677 33.3371L0.334351 30.5623L31.5954 8.66692L31.7375 8.46387L62.9999 30.3602L61.0575 33.135L53.3322 27.7242V37.7985H50.623V25.8267L31.8114 12.6509ZM40.8287 36.5929H36.196V50.934C36.196 52.121 36.5292 53.0397 37.1957 53.69C37.8622 54.3242 38.8131 54.6412 40.0485 54.6412C40.6662 54.6412 41.3164 54.5681 41.9991 54.4217C42.6981 54.2754 43.3239 54.0722 43.8766 53.812L43.2914 50.3974C42.8525 50.6413 42.4299 50.7633 42.0235 50.7633C41.227 50.7633 40.8287 50.2755 40.8287 49.2999V36.5929ZM4.70429 54.3973V37.0807H9.45893V43.6659L14.7256 37.0807H20.0898L13.7991 44.8366L20.5287 54.3973H15.067L10.7756 48.0316L9.45893 49.3975V54.3973H4.70429ZM27.1437 54.6412C25.6157 54.6412 24.3316 54.3323 23.2912 53.7144C22.2509 53.0803 21.4625 52.2592 20.9261 51.2511C20.3897 50.243 20.1215 49.1536 20.1215 47.9829C20.1215 46.7959 20.3897 45.6984 20.9261 44.6903C21.4625 43.6822 22.2509 42.8692 23.2912 42.2513C24.3316 41.6334 25.6157 41.3245 27.1437 41.3245C28.6717 41.3245 29.9559 41.6334 30.9962 42.2513C32.0365 42.8692 32.8249 43.6822 33.3613 44.6903C33.8977 45.6984 34.166 46.7959 34.166 47.9829C34.166 49.1536 33.8977 50.243 33.3613 51.2511C32.8249 52.2592 32.0365 53.0803 30.9962 53.7144C29.9559 54.3323 28.6717 54.6412 27.1437 54.6412ZM24.8761 47.9829C24.8761 48.8284 25.0874 49.5032 25.5101 50.0072C25.9489 50.495 26.4935 50.7389 27.1437 50.7389C27.8102 50.7389 28.3547 50.495 28.7774 50.0072C29.2 49.5032 29.4113 48.8284 29.4113 47.9829C29.4113 47.1211 29.2 46.4463 28.7774 45.9585C28.3547 45.4707 27.8102 45.2268 27.1437 45.2268C26.4935 45.2268 25.9489 45.4707 25.5101 45.9585C25.0874 46.4463 24.8761 47.1211 24.8761 47.9829ZM51.7637 54.6412C50.2357 54.6412 48.9515 54.3323 47.9112 53.7144C46.8709 53.0803 46.0825 52.2592 45.5461 51.2511C45.0096 50.243 44.7414 49.1536 44.7414 47.9829C44.7414 46.7959 45.0096 45.6984 45.5461 44.6903C46.0825 43.6822 46.8709 42.8692 47.9112 42.2513C48.9515 41.6334 50.2357 41.3245 51.7637 41.3245C53.2917 41.3245 54.5758 41.6334 55.6162 42.2513C56.6565 42.8692 57.4449 43.6822 57.9813 44.6903C58.5177 45.6984 58.7859 46.7959 58.7859 47.9829C58.7859 49.1536 58.5177 50.243 57.9813 51.2511C57.4449 52.2592 56.6565 53.0803 55.6162 53.7144C54.5758 54.3323 53.2917 54.6412 51.7637 54.6412ZM49.4961 47.9829C49.4961 48.8284 49.7074 49.5032 50.13 50.0072C50.5689 50.495 51.1135 50.7389 51.7637 50.7389C52.4301 50.7389 52.9747 50.495 53.3973 50.0072C53.82 49.5032 54.0313 48.8284 54.0313 47.9829C54.0313 47.1211 53.82 46.4463 53.3973 45.9585C52.9747 45.4707 52.4301 45.2268 51.7637 45.2268C51.1135 45.2268 50.5689 45.4707 50.13 45.9585C49.7074 46.4463 49.4961 47.1211 49.4961 47.9829Z" fill="#0066FF"/>
</svg>
