<svg width="559" height="561" viewBox="0 0 559 561" fill="none" xmlns="http://www.w3.org/2000/svg" class="logo-responsive-kuku-fm text-theme-logo" style="--logo-desktop-width:34px;--logo-desktop-height:34px;--logo-mobile-width:34px;--logo-mobile-height:34px"><path d="M345.006 506.857C353.85 520.739 379.752 527.05 379.752 545.35V547.874C379.752 555.446 374.066 559.863 365.222 559.863H233.185C224.34 559.863 218.654 554.815 218.654 547.243V544.718C218.654 527.05 242.029 522.632 231.921 506.857L177.59 422.299C166.85 424.192 156.11 425.454 144.107 425.454V490.45C144.107 519.477 172.536 527.05 172.536 545.35V547.874C172.536 555.446 166.218 559.863 157.374 559.863H20.2826C11.438 559.863 5.12044 555.446 5.12044 547.874V545.35C5.12044 527.05 30.3907 519.477 30.3907 490.45V121.098C30.3907 91.4394 0.0664062 83.236 0.0664062 67.4603V64.9361C0.0664062 57.9948 5.75215 54.8397 14.5968 50.4224L115.678 3.72621C133.367 -4.47719 144.107 4.98825 144.107 16.9779V380.651C252.769 371.185 207.914 251.289 284.989 251.289C319.104 251.289 334.266 272.113 334.266 297.986C334.266 327.013 310.891 364.244 266.036 391.378L345.006 506.857Z" fill="currentColor"></path><ellipse cx="469.054" cy="471.319" rx="89.0544" ry="89.053" fill="#EC1C24"></ellipse></svg>