<svg width="1400" height="460" viewBox="0 0 1400 460" fill="none" xmlns="http://www.w3.org/2000/svg">
<rect width="1400" height="460" fill="black"/>
<path d="M511.7 261V203.886H535.412V216.312C537.084 212.056 539.478 208.788 542.594 206.508C545.786 204.228 549.776 203.088 554.564 203.088C559.276 203.088 563.266 204.266 566.534 206.622C569.878 208.902 572.234 211.866 573.602 215.514C576.186 211.638 579.226 208.598 582.722 206.394C586.294 204.19 590.588 203.088 595.604 203.088C602.672 203.088 608.144 205.672 612.02 210.84C615.896 215.932 617.834 223.152 617.834 232.5V261H593.78V231.246C593.78 224.482 591.386 221.1 586.598 221.1C583.634 221.1 581.24 222.316 579.416 224.748C577.668 227.104 576.794 230.296 576.794 234.324V261H552.74V231.246C552.74 227.674 552.132 225.09 550.916 223.494C549.7 221.898 547.914 221.1 545.558 221.1C542.594 221.1 540.2 222.278 538.376 224.634C536.628 226.914 535.754 230.144 535.754 234.324V261H511.7ZM664.145 245.952C666.349 245.952 668.667 245.724 671.099 245.268C673.607 244.812 676.153 243.976 678.737 242.76L681.473 257.466C678.661 258.91 675.583 260.012 672.239 260.772C668.971 261.532 665.209 261.912 660.953 261.912C653.277 261.912 646.817 260.658 641.573 258.15C636.405 255.642 632.491 252.184 629.831 247.776C627.171 243.368 625.841 238.276 625.841 232.5C625.841 226.572 627.247 221.404 630.059 216.996C632.947 212.588 636.785 209.168 641.573 206.736C646.361 204.304 651.643 203.088 657.419 203.088C666.007 203.088 672.581 205.786 677.141 211.182C681.701 216.502 683.981 224.102 683.981 233.982L650.009 238.314C652.517 243.406 657.229 245.952 664.145 245.952ZM648.185 227.826L666.083 224.064C665.779 221.632 664.943 219.846 663.575 218.706C662.207 217.49 660.497 216.882 658.445 216.882C655.405 216.882 652.973 217.946 651.149 220.074C649.401 222.126 648.413 224.71 648.185 227.826ZM717.105 261.912C711.861 261.912 707.111 260.658 702.855 258.15C698.599 255.566 695.217 252.032 692.709 247.548C690.277 243.064 689.061 237.934 689.061 232.158C689.061 226.382 690.277 221.328 692.709 216.996C695.217 212.664 698.599 209.282 702.855 206.85C707.111 204.342 711.861 203.088 717.105 203.088C720.829 203.088 724.439 204.114 727.935 206.166C731.431 208.218 734.129 211.6 736.029 216.312V203.886H759.741V261H735.801V250.398C733.977 254.122 731.545 256.972 728.505 258.948C725.465 260.924 721.665 261.912 717.105 261.912ZM724.515 243.9C727.631 243.9 730.291 242.798 732.495 240.594C734.699 238.314 735.801 235.54 735.801 232.272C735.801 229.004 734.699 226.344 732.495 224.292C730.291 222.164 727.631 221.1 724.515 221.1C721.247 221.1 718.511 222.202 716.307 224.406C714.103 226.61 713.001 229.308 713.001 232.5C713.001 235.692 714.103 238.39 716.307 240.594C718.511 242.798 721.247 243.9 724.515 243.9ZM789.516 261.912C786.096 261.912 782.638 261.57 779.142 260.886C775.646 260.202 772.492 259.252 769.68 258.036L772.986 243.672C774.734 244.584 777.128 245.382 780.168 246.066C783.208 246.674 785.906 246.978 788.262 246.978C792.062 246.978 793.962 245.952 793.962 243.9C793.962 242.912 793.354 242.19 792.138 241.734C790.998 241.278 789.478 240.898 787.578 240.594C785.754 240.214 783.778 239.758 781.65 239.226C779.522 238.618 777.508 237.744 775.608 236.604C773.784 235.388 772.264 233.678 771.048 231.474C769.908 229.27 769.338 226.382 769.338 222.81C769.338 216.806 771.694 212.018 776.406 208.446C781.194 204.874 787.73 203.088 796.014 203.088C799.206 203.088 802.17 203.316 804.906 203.772C807.718 204.228 810.378 205.178 812.886 206.622L810.492 220.53C806.464 218.858 802.246 218.022 797.838 218.022C795.026 218.022 792.974 218.25 791.682 218.706C790.466 219.162 789.858 219.922 789.858 220.986C789.858 221.822 790.466 222.468 791.682 222.924C792.898 223.38 794.456 223.836 796.356 224.292C798.332 224.672 800.384 225.242 802.512 226.002C804.64 226.686 806.654 227.674 808.554 228.966C810.53 230.258 812.126 232.006 813.342 234.21C814.558 236.338 815.166 239.112 815.166 242.532C815.166 248.612 812.924 253.362 808.44 256.782C803.956 260.202 797.648 261.912 789.516 261.912ZM853.347 261.912C843.695 261.912 836.133 259.48 830.661 254.616C825.265 249.676 822.567 242.874 822.567 234.21V203.886H846.051V235.236C846.051 238.276 846.697 240.518 847.989 241.962C849.357 243.406 851.181 244.128 853.461 244.128C855.665 244.128 857.375 243.406 858.591 241.962C859.883 240.518 860.529 238.276 860.529 235.236V203.886H883.557V234.21C883.557 242.95 880.897 249.752 875.577 254.616C870.333 259.48 862.923 261.912 853.347 261.912ZM894.373 261V203.886H918.085V218.136C919.605 212.968 921.961 209.168 925.153 206.736C928.421 204.304 932.297 203.088 936.781 203.088L939.631 223.266C937.807 223.038 936.021 222.924 934.273 222.924C923.709 222.924 918.427 227.256 918.427 235.92V261H894.373ZM977.42 245.952C979.624 245.952 981.942 245.724 984.374 245.268C986.882 244.812 989.428 243.976 992.012 242.76L994.748 257.466C991.936 258.91 988.858 260.012 985.514 260.772C982.246 261.532 978.484 261.912 974.228 261.912C966.552 261.912 960.092 260.658 954.848 258.15C949.68 255.642 945.766 252.184 943.106 247.776C940.446 243.368 939.116 238.276 939.116 232.5C939.116 226.572 940.522 221.404 943.334 216.996C946.222 212.588 950.06 209.168 954.848 206.736C959.636 204.304 964.918 203.088 970.694 203.088C979.282 203.088 985.856 205.786 990.416 211.182C994.976 216.502 997.256 224.102 997.256 233.982L963.284 238.314C965.792 243.406 970.504 245.952 977.42 245.952ZM961.46 227.826L979.358 224.064C979.054 221.632 978.218 219.846 976.85 218.706C975.482 217.49 973.772 216.882 971.72 216.882C968.68 216.882 966.248 217.946 964.424 220.074C962.676 222.126 961.688 224.71 961.46 227.826ZM1015.79 261.684C1011.61 261.684 1008.42 260.582 1006.21 258.378C1004.01 256.098 1002.91 253.324 1002.91 250.056C1002.91 246.712 1004.08 243.976 1006.44 241.848C1008.8 239.644 1011.91 238.542 1015.79 238.542C1019.66 238.542 1022.74 239.682 1025.02 241.962C1027.38 244.242 1028.56 246.94 1028.56 250.056C1028.56 253.552 1027.45 256.364 1025.25 258.492C1023.12 260.62 1019.97 261.684 1015.79 261.684ZM1056.03 261.912C1052.61 261.912 1049.16 261.57 1045.66 260.886C1042.16 260.202 1039.01 259.252 1036.2 258.036L1039.5 243.672C1041.25 244.584 1043.65 245.382 1046.69 246.066C1049.73 246.674 1052.42 246.978 1054.78 246.978C1058.58 246.978 1060.48 245.952 1060.48 243.9C1060.48 242.912 1059.87 242.19 1058.66 241.734C1057.52 241.278 1056 240.898 1054.1 240.594C1052.27 240.214 1050.3 239.758 1048.17 239.226C1046.04 238.618 1044.03 237.744 1042.13 236.604C1040.3 235.388 1038.78 233.678 1037.57 231.474C1036.43 229.27 1035.86 226.382 1035.86 222.81C1035.86 216.806 1038.21 212.018 1042.92 208.446C1047.71 204.874 1054.25 203.088 1062.53 203.088C1065.72 203.088 1068.69 203.316 1071.42 203.772C1074.24 204.228 1076.9 205.178 1079.4 206.622L1077.01 220.53C1072.98 218.858 1068.76 218.022 1064.36 218.022C1061.54 218.022 1059.49 218.25 1058.2 218.706C1056.98 219.162 1056.38 219.922 1056.38 220.986C1056.38 221.822 1056.98 222.468 1058.2 222.924C1059.42 223.38 1060.97 223.836 1062.87 224.292C1064.85 224.672 1066.9 225.242 1069.03 226.002C1071.16 226.686 1073.17 227.674 1075.07 228.966C1077.05 230.258 1078.64 232.006 1079.86 234.21C1081.08 236.338 1081.68 239.112 1081.68 242.532C1081.68 248.612 1079.44 253.362 1074.96 256.782C1070.47 260.202 1064.17 261.912 1056.03 261.912ZM1089.66 261V185.874L1113.71 182.34V215.628C1115.31 211.676 1117.81 208.598 1121.23 206.394C1124.65 204.19 1128.76 203.088 1133.55 203.088C1140.99 203.088 1146.77 205.672 1150.87 210.84C1154.98 215.932 1157.03 223.152 1157.03 232.5V261H1132.98V231.246C1132.98 224.482 1130.24 221.1 1124.77 221.1C1121.5 221.1 1118.84 222.316 1116.79 224.748C1114.74 227.104 1113.71 230.296 1113.71 234.324V261H1089.66Z" fill="white"/>
<mask id="mask0_2602_407" style="mask-type:luminance" maskUnits="userSpaceOnUse" x="368" y="196" width="70" height="71">
<path fill-rule="evenodd" clip-rule="evenodd" d="M436.559 222.587C441.51 241.133 430.556 260.194 412.094 265.16C393.635 270.126 374.656 259.117 369.706 240.57C364.757 222.026 375.71 202.966 394.169 198C412.631 193.034 431.61 204.043 436.559 222.587ZM398.305 213.499C388.367 216.172 382.469 226.436 385.134 236.42C387.799 246.407 398.019 252.335 407.958 249.662C417.899 246.988 423.797 236.724 421.132 226.737C418.467 216.753 408.247 210.825 398.305 213.499Z" fill="white"/>
</mask>
<g mask="url(#mask0_2602_407)">
<path fill-rule="evenodd" clip-rule="evenodd" d="M344.203 197.413L437.151 172.41L462.063 265.747L369.115 290.75L344.203 197.413Z" fill="white"/>
</g>
<mask id="mask1_2602_407" style="mask-type:luminance" maskUnits="userSpaceOnUse" x="289" y="235" width="49" height="33">
<path fill-rule="evenodd" clip-rule="evenodd" d="M337.549 235.58L337.553 258.094L299.519 267.264L289.169 252.518L337.549 235.58Z" fill="white"/>
</mask>
<g mask="url(#mask1_2602_407)">
<path fill-rule="evenodd" clip-rule="evenodd" d="M279.923 236.916L335.094 222.075L346.799 265.927L291.628 280.768L279.923 236.916Z" fill="white"/>
</g>
<path fill-rule="evenodd" clip-rule="evenodd" d="M342.812 186.642C355.887 183.125 368.058 173.761 378.488 163.171C389.069 152.43 398.647 139.605 406.437 127.917C412.981 118.096 427.38 119.25 431.877 128.117C439.075 142.311 447.118 158.509 453.801 172.828C460.61 187.414 465.652 199.306 467.244 205.268C481.709 259.465 444.927 318.435 382.722 335.168C320.518 351.901 259.293 319.294 244.828 265.097C243.244 259.163 241.687 246.397 240.316 230.423C238.97 214.743 237.86 196.761 237.017 180.924C236.488 170.995 248.356 162.758 258.92 167.953C271.433 174.108 286.044 180.337 300.476 184.281C314.705 188.169 329.82 190.136 342.812 186.642Z" stroke="#0BC847" stroke-width="24.96"/>
</svg>
