<svg width="1024" height="306" viewBox="0 0 1024 306" fill="none" xmlns="http://www.w3.org/2000/svg">
<path d="M323.7 184V126.886H347.412V139.312C349.084 135.056 351.478 131.788 354.594 129.508C357.786 127.228 361.776 126.088 366.564 126.088C371.276 126.088 375.266 127.266 378.534 129.622C381.878 131.902 384.234 134.866 385.602 138.514C388.186 134.638 391.226 131.598 394.722 129.394C398.294 127.19 402.588 126.088 407.604 126.088C414.672 126.088 420.144 128.672 424.02 133.84C427.896 138.932 429.834 146.152 429.834 155.5V184H405.78V154.246C405.78 147.482 403.386 144.1 398.598 144.1C395.634 144.1 393.24 145.316 391.416 147.748C389.668 150.104 388.794 153.296 388.794 157.324V184H364.74V154.246C364.74 150.674 364.132 148.09 362.916 146.494C361.7 144.898 359.914 144.1 357.558 144.1C354.594 144.1 352.2 145.278 350.376 147.634C348.628 149.914 347.754 153.144 347.754 157.324V184H323.7ZM476.145 168.952C478.349 168.952 480.667 168.724 483.099 168.268C485.607 167.812 488.153 166.976 490.737 165.76L493.473 180.466C490.661 181.91 487.583 183.012 484.239 183.772C480.971 184.532 477.209 184.912 472.953 184.912C465.277 184.912 458.817 183.658 453.573 181.15C448.405 178.642 444.491 175.184 441.831 170.776C439.171 166.368 437.841 161.276 437.841 155.5C437.841 149.572 439.247 144.404 442.059 139.996C444.947 135.588 448.785 132.168 453.573 129.736C458.361 127.304 463.643 126.088 469.419 126.088C478.007 126.088 484.581 128.786 489.141 134.182C493.701 139.502 495.981 147.102 495.981 156.982L462.009 161.314C464.517 166.406 469.229 168.952 476.145 168.952ZM460.185 150.826L478.083 147.064C477.779 144.632 476.943 142.846 475.575 141.706C474.207 140.49 472.497 139.882 470.445 139.882C467.405 139.882 464.973 140.946 463.149 143.074C461.401 145.126 460.413 147.71 460.185 150.826ZM529.105 184.912C523.861 184.912 519.111 183.658 514.855 181.15C510.599 178.566 507.217 175.032 504.709 170.548C502.277 166.064 501.061 160.934 501.061 155.158C501.061 149.382 502.277 144.328 504.709 139.996C507.217 135.664 510.599 132.282 514.855 129.85C519.111 127.342 523.861 126.088 529.105 126.088C532.829 126.088 536.439 127.114 539.935 129.166C543.431 131.218 546.129 134.6 548.029 139.312V126.886H571.741V184H547.801V173.398C545.977 177.122 543.545 179.972 540.505 181.948C537.465 183.924 533.665 184.912 529.105 184.912ZM536.515 166.9C539.631 166.9 542.291 165.798 544.495 163.594C546.699 161.314 547.801 158.54 547.801 155.272C547.801 152.004 546.699 149.344 544.495 147.292C542.291 145.164 539.631 144.1 536.515 144.1C533.247 144.1 530.511 145.202 528.307 147.406C526.103 149.61 525.001 152.308 525.001 155.5C525.001 158.692 526.103 161.39 528.307 163.594C530.511 165.798 533.247 166.9 536.515 166.9ZM601.516 184.912C598.096 184.912 594.638 184.57 591.142 183.886C587.646 183.202 584.492 182.252 581.68 181.036L584.986 166.672C586.734 167.584 589.128 168.382 592.168 169.066C595.208 169.674 597.906 169.978 600.262 169.978C604.062 169.978 605.962 168.952 605.962 166.9C605.962 165.912 605.354 165.19 604.138 164.734C602.998 164.278 601.478 163.898 599.578 163.594C597.754 163.214 595.778 162.758 593.65 162.226C591.522 161.618 589.508 160.744 587.608 159.604C585.784 158.388 584.264 156.678 583.048 154.474C581.908 152.27 581.338 149.382 581.338 145.81C581.338 139.806 583.694 135.018 588.406 131.446C593.194 127.874 599.73 126.088 608.014 126.088C611.206 126.088 614.17 126.316 616.906 126.772C619.718 127.228 622.378 128.178 624.886 129.622L622.492 143.53C618.464 141.858 614.246 141.022 609.838 141.022C607.026 141.022 604.974 141.25 603.682 141.706C602.466 142.162 601.858 142.922 601.858 143.986C601.858 144.822 602.466 145.468 603.682 145.924C604.898 146.38 606.456 146.836 608.356 147.292C610.332 147.672 612.384 148.242 614.512 149.002C616.64 149.686 618.654 150.674 620.554 151.966C622.53 153.258 624.126 155.006 625.342 157.21C626.558 159.338 627.166 162.112 627.166 165.532C627.166 171.612 624.924 176.362 620.44 179.782C615.956 183.202 609.648 184.912 601.516 184.912ZM665.347 184.912C655.695 184.912 648.133 182.48 642.661 177.616C637.265 172.676 634.567 165.874 634.567 157.21V126.886H658.051V158.236C658.051 161.276 658.697 163.518 659.989 164.962C661.357 166.406 663.181 167.128 665.461 167.128C667.665 167.128 669.375 166.406 670.591 164.962C671.883 163.518 672.529 161.276 672.529 158.236V126.886H695.557V157.21C695.557 165.95 692.897 172.752 687.577 177.616C682.333 182.48 674.923 184.912 665.347 184.912ZM706.373 184V126.886H730.085V141.136C731.605 135.968 733.961 132.168 737.153 129.736C740.421 127.304 744.297 126.088 748.781 126.088L751.631 146.266C749.807 146.038 748.021 145.924 746.273 145.924C735.709 145.924 730.427 150.256 730.427 158.92V184H706.373ZM789.42 168.952C791.624 168.952 793.942 168.724 796.374 168.268C798.882 167.812 801.428 166.976 804.012 165.76L806.748 180.466C803.936 181.91 800.858 183.012 797.514 183.772C794.246 184.532 790.484 184.912 786.228 184.912C778.552 184.912 772.092 183.658 766.848 181.15C761.68 178.642 757.766 175.184 755.106 170.776C752.446 166.368 751.116 161.276 751.116 155.5C751.116 149.572 752.522 144.404 755.334 139.996C758.222 135.588 762.06 132.168 766.848 129.736C771.636 127.304 776.918 126.088 782.694 126.088C791.282 126.088 797.856 128.786 802.416 134.182C806.976 139.502 809.256 147.102 809.256 156.982L775.284 161.314C777.792 166.406 782.504 168.952 789.42 168.952ZM773.46 150.826L791.358 147.064C791.054 144.632 790.218 142.846 788.85 141.706C787.482 140.49 785.772 139.882 783.72 139.882C780.68 139.882 778.248 140.946 776.424 143.074C774.676 145.126 773.688 147.71 773.46 150.826ZM827.788 184.684C823.608 184.684 820.416 183.582 818.212 181.378C816.008 179.098 814.906 176.324 814.906 173.056C814.906 169.712 816.084 166.976 818.44 164.848C820.796 162.644 823.912 161.542 827.788 161.542C831.664 161.542 834.742 162.682 837.022 164.962C839.378 167.242 840.556 169.94 840.556 173.056C840.556 176.552 839.454 179.364 837.25 181.492C835.122 183.62 831.968 184.684 827.788 184.684ZM868.033 184.912C864.613 184.912 861.155 184.57 857.659 183.886C854.163 183.202 851.009 182.252 848.197 181.036L851.503 166.672C853.251 167.584 855.645 168.382 858.685 169.066C861.725 169.674 864.423 169.978 866.779 169.978C870.579 169.978 872.479 168.952 872.479 166.9C872.479 165.912 871.871 165.19 870.655 164.734C869.515 164.278 867.995 163.898 866.095 163.594C864.271 163.214 862.295 162.758 860.167 162.226C858.039 161.618 856.025 160.744 854.125 159.604C852.301 158.388 850.781 156.678 849.565 154.474C848.425 152.27 847.855 149.382 847.855 145.81C847.855 139.806 850.211 135.018 854.923 131.446C859.711 127.874 866.247 126.088 874.531 126.088C877.723 126.088 880.687 126.316 883.423 126.772C886.235 127.228 888.895 128.178 891.403 129.622L889.009 143.53C884.981 141.858 880.763 141.022 876.355 141.022C873.543 141.022 871.491 141.25 870.199 141.706C868.983 142.162 868.375 142.922 868.375 143.986C868.375 144.822 868.983 145.468 870.199 145.924C871.415 146.38 872.973 146.836 874.873 147.292C876.849 147.672 878.901 148.242 881.029 149.002C883.157 149.686 885.171 150.674 887.071 151.966C889.047 153.258 890.643 155.006 891.859 157.21C893.075 159.338 893.683 162.112 893.683 165.532C893.683 171.612 891.441 176.362 886.957 179.782C882.473 183.202 876.165 184.912 868.033 184.912ZM901.655 184V108.874L925.709 105.34V138.628C927.305 134.676 929.813 131.598 933.233 129.394C936.653 127.19 940.757 126.088 945.545 126.088C952.993 126.088 958.769 128.672 962.873 133.84C966.977 138.932 969.029 146.152 969.029 155.5V184H944.975V154.246C944.975 147.482 942.239 144.1 936.767 144.1C933.499 144.1 930.839 145.316 928.787 147.748C926.735 150.104 925.709 153.296 925.709 157.324V184H901.655Z" fill="white"/>
<mask id="mask0_221_80" style="mask-type:luminance" maskUnits="userSpaceOnUse" x="180" y="119" width="70" height="71">
<path fill-rule="evenodd" clip-rule="evenodd" d="M248.559 145.587C253.51 164.133 242.556 183.194 224.094 188.16C205.635 193.126 186.656 182.117 181.706 163.57C176.757 145.026 187.71 125.966 206.169 121C224.631 116.034 243.61 127.043 248.559 145.587ZM210.305 136.499C200.367 139.172 194.469 149.436 197.134 159.42C199.799 169.407 210.019 175.335 219.958 172.662C229.899 169.988 235.797 159.724 233.132 149.737C230.467 139.753 220.247 133.825 210.305 136.499Z" fill="white"/>
</mask>
<g mask="url(#mask0_221_80)">
<path fill-rule="evenodd" clip-rule="evenodd" d="M156.203 120.413L249.151 95.4099L274.063 188.747L181.115 213.75L156.203 120.413Z" fill="white"/>
</g>
<mask id="mask1_221_80" style="mask-type:luminance" maskUnits="userSpaceOnUse" x="101" y="158" width="49" height="33">
<path fill-rule="evenodd" clip-rule="evenodd" d="M149.549 158.58L149.553 181.094L111.519 190.264L101.169 175.518L149.549 158.58Z" fill="white"/>
</mask>
<g mask="url(#mask1_221_80)">
<path fill-rule="evenodd" clip-rule="evenodd" d="M91.9233 159.916L147.094 145.075L158.799 188.927L103.628 203.768L91.9233 159.916Z" fill="white"/>
</g>
<path fill-rule="evenodd" clip-rule="evenodd" d="M154.812 109.642C167.887 106.125 180.058 96.7615 190.488 86.1713C201.069 75.4301 210.647 62.6055 218.437 50.9173C224.981 41.0961 239.38 42.2502 243.877 51.1174C251.075 65.311 259.118 81.5091 265.801 95.8277C272.61 110.414 277.652 122.306 279.244 128.268C293.709 182.465 256.927 241.435 194.722 258.168C132.518 274.901 71.2933 242.294 56.8279 188.097C55.244 182.163 53.6871 169.397 52.3159 153.423C50.97 137.743 49.8598 119.761 49.0171 103.924C48.4881 93.9947 60.3564 85.7583 70.9198 90.9527C83.4333 97.1076 98.0444 103.337 112.476 107.281C126.705 111.169 141.82 113.136 154.812 109.642Z" stroke="#0BC847" stroke-width="24.96"/>
</svg>
