<svg width="300" height="300" viewBox="0 0 300 300" fill="none" xmlns="http://www.w3.org/2000/svg">
<path fill-rule="evenodd" clip-rule="evenodd" d="M139.812 113.642C152.887 110.125 165.058 100.761 175.488 90.1713C186.069 79.4301 195.647 66.6055 203.437 54.9173C209.981 45.0961 224.38 46.2502 228.877 55.1174C236.075 69.311 244.118 85.5091 250.801 99.8277C257.61 114.414 262.652 126.306 264.244 132.268C278.709 186.465 241.927 245.435 179.722 262.168C117.518 278.901 56.2933 246.294 41.8279 192.097C40.244 186.163 38.6871 173.397 37.3159 157.423C35.97 141.743 34.8598 123.761 34.0171 107.924C33.4881 97.9947 45.3564 89.7583 55.9198 94.9527C68.4333 101.108 83.0444 107.337 97.4758 111.281C111.705 115.169 126.82 117.136 139.812 113.642Z" fill="black" stroke="#0BC847" stroke-width="24.96"/>
<mask id="mask0_5_133" style="mask-type:luminance" maskUnits="userSpaceOnUse" x="165" y="123" width="70" height="71">
<path fill-rule="evenodd" clip-rule="evenodd" d="M233.56 149.587C238.51 168.133 227.556 187.194 209.095 192.16C190.635 197.126 171.656 186.117 166.706 167.57C161.757 149.026 172.71 129.966 191.169 125C209.631 120.034 228.61 131.043 233.56 149.587ZM195.306 140.499C185.367 143.172 179.469 153.436 182.134 163.42C184.799 173.407 195.019 179.335 204.958 176.662C214.899 173.988 220.797 163.724 218.132 153.737C215.467 143.753 205.247 137.825 195.306 140.499Z" fill="white"/>
</mask>
<g mask="url(#mask0_5_133)">
<path fill-rule="evenodd" clip-rule="evenodd" d="M141.203 124.412L234.151 99.4097L259.063 192.747L166.116 217.75L141.203 124.412Z" fill="white"/>
</g>
<mask id="mask1_5_133" style="mask-type:luminance" maskUnits="userSpaceOnUse" x="86" y="162" width="49" height="33">
<path fill-rule="evenodd" clip-rule="evenodd" d="M134.549 162.58L134.553 185.094L96.5189 194.264L86.1694 179.518L134.549 162.58Z" fill="white"/>
</mask>
<g mask="url(#mask1_5_133)">
<path fill-rule="evenodd" clip-rule="evenodd" d="M76.9233 163.916L132.094 149.076L143.799 192.927L88.6276 207.768L76.9233 163.916Z" fill="white"/>
</g>
</svg>
