<?xml version="1.0" encoding="UTF-8"?>
<svg id="Layer_1" data-name="Layer 1" xmlns="http://www.w3.org/2000/svg" version="1.1" viewBox="0 0 1000 500">
  <defs>
    <style>
      .cls-1 {
        fill: #4eba74;
      }

      .cls-1, .cls-2, .cls-3 {
        stroke-width: 0px;
      }

      .cls-2 {
        fill: #067e65;
      }

      .cls-3 {
        fill: #009f69;
      }
    </style>
  </defs>
  <path class="cls-3" d="M69.8,357.3c-4.2,0-8.2-.7-12-1.9-3.7-1.2-7-3-9.8-5.4s-5-5.2-6.6-8.6-2.4-7.3-2.4-11.7v-54.7h-9.3c-1.6,0-2.7-.4-3.5-1-.8-.7-1.2-1.9-1.2-3.5v-11.5c0-1.6.4-2.6,1.2-3.3.8-.6,2-1,3.5-1h9.3v-17c0-1.1.3-1.9,1-2.5s1.7-1.2,3.1-1.7c.9-.3,2-.7,3.3-1.2s2.6-.9,4-1.3c1.4-.4,2.7-.8,4-1.1s2.4-.4,3.2-.4c1.7,0,2.8.5,3.3,1.4s.8,2.1.8,3.6v20.2h11.6c1.4,0,2.5.4,3.2,1.1.8.7,1.1,1.9,1.1,3.4v11c0,1.7-.4,3-1.1,3.7-.8.8-1.8,1.1-3.2,1.1h-11.6v52.4c0,3.6.7,6.1,2.1,7.7,1.4,1.6,3.7,2.4,6.8,2.4s2,.4,2.7,1.2c.7.8,1,1.8,1,2.9v11.2c0,1.4-.4,2.5-1.2,3.3s-1.9,1.2-3.3,1.2"/>
  <path class="cls-3" d="M177,356.2c-.6.1-1.2.2-1.9.2h-10.1c-1.6,0-3.1-.6-3.9-1.6-.8-1-.9-2-1.1-3.3l-.9-7.4c-1.2,1.8-2.7,3.5-4.4,5.1-1.8,1.6-3.9,3.1-6.3,4.4-2.4,1.3-5.2,2.3-8.4,3-3.1.8-6.7,1.1-10.7,1.1-6.4,0-12.1-1.1-17-3.4s-9-5.4-12.3-9.4-5.8-8.6-7.6-14c-1.7-5.4-2.6-11.2-2.6-17.4v-53.9c0-1.9.5-3.4,1.4-4.4s2.2-1.5,4-1.5h12.3c2.2,0,3.6.4,4.3,1.2.7.8,1.1,2.2,1.1,4.3v53.9c0,2.9.4,5.6,1.3,8.4.9,2.7,2.2,5.2,4,7.3,1.8,2.2,4,3.9,6.7,5.2,2.7,1.3,5.8,1.9,9.3,1.9s5.1-.4,7.8-1.3,5.1-2.2,7.4-4c2.2-1.8,4-4,5.5-6.7,1.4-2.7,2.2-5.8,2.2-9.3v-52.4c0-1,.1-2,.2-3s.3-1.9.7-2.8c.4-.8.8-1.5,1.5-2,.6-.5,1.5-.8,2.5-.8h13.3c1.8,0,3.1.4,3.9,1.3s1.2,2.1,1.2,3.6v92.9c0,2.1-1.4,4.5-3.4,4.8"/>
  <path class="cls-3" d="M257.2,259.3c0-1.7-1.1-3.3-2.7-3.8-2.2-.8-5.1-1.5-6.5-1.7-2.2-.4-4.6-.5-7.3-.5s-5.7.4-8.1,1.1-4.5,1.7-6.4,3c-1.9,1.2-3.6,2.6-5.1,4.2s-2.8,3.2-4,4.9c-.2-1.1-.4-2.4-.6-3.8-.2-1.4-.4-2.6-.8-3.8-.4-1.2-.9-2.2-1.6-3-.7-.8-1.7-1.2-3.1-1.2h-10.3c-1.2,0-2.4.4-3.4,1.2-1,.8-1.6,2-1.6,3.6v93c0,3.2,1.7,4.9,5,4.9h13.3c3.4,0,5-1.6,5-4.9v-54.1c.4-5,.4-8.3,2.2-11.8,1.1-2.1,5.1-10.9,16.4-12.1,4.1-.4,8.5-.1,13.2,1.9,2.2.7,5.8,1.7,6.2-2.7l.2-14.4h0Z"/>
  <path class="cls-3" d="M309.9,357.3c-4.3,0-8.2-.7-12-1.9-3.7-1.2-7-3-9.8-5.4s-5-5.2-6.6-8.6-2.4-7.3-2.4-11.7v-54.7h-9.3c-1.6,0-2.7-.4-3.5-1-.8-.7-1.2-1.9-1.2-3.5v-11.5c0-1.6.4-2.6,1.2-3.3.8-.6,2-1,3.5-1h9.3v-17c0-1.1.3-1.9,1-2.5s1.7-1.2,3.1-1.7c.9-.3,2-.7,3.3-1.2s2.6-.9,4-1.3c1.4-.4,2.7-.8,4-1.1s2.4-.4,3.2-.4c1.7,0,2.8.5,3.3,1.4s.8,2.1.8,3.6v20.2h11.6c1.4,0,2.5.4,3.2,1.1.8.7,1.1,1.9,1.1,3.4v11c0,1.7-.4,3-1.1,3.7s-1.8,1.1-3.2,1.1h-11.6v52.4c0,3.6.7,6.1,2.1,7.7s3.7,2.4,6.8,2.4,2,.4,2.7,1.2c.6.8,1,1.8,1,2.9v11.2c0,1.4-.4,2.5-1.2,3.3-.8.8-1.9,1.2-3.3,1.2"/>
  <path class="cls-3" d="M331,229.1c0-1.4.4-2.6,1.1-3.5s1.9-1.4,3.5-1.4h14.1c1.1,0,2.1.5,3,1.4s1.4,2.1,1.4,3.5v123.4c0,1.6-.4,2.8-1.3,3.6-.9.8-2.1,1.2-3.6,1.2h-13.5c-1.7,0-3-.4-3.7-1.2-.7-.8-1.1-2-1.1-3.6v-123.4h.1Z"/>
  <path class="cls-3" d="M453.3,346c-4.7,4-9.9,7.2-15.5,9.5s-11.8,3.5-18.5,3.5-14.2-1.4-20.7-4.1-12.2-6.5-17.1-11.3-8.8-10.4-11.7-16.8-4.3-13.4-4.3-20.8.6-9.4,1.8-13.9c1.2-4.5,2.9-8.7,5-12.6,2.2-3.9,4.8-7.5,8-10.8,3.1-3.3,6.6-6,10.5-8.4,3.9-2.3,8-4.1,12.5-5.4,4.5-1.3,9.2-1.9,14.3-1.9s8.1.5,12.1,1.5,7.8,2.4,11.4,4.2c3.6,1.8,6.9,4,10.1,6.7,3.1,2.6,5.9,5.6,8.2,8.8,3.2,4.5,5.6,9.4,7.1,14.6s2.3,11,2.3,17.4-.1,2.9-.2,3.9-.5,1.9-1,2.5-1.3,1.1-2.4,1.4-2.6.4-4.5.4h-71.7c.7,3.9,2,7.3,4,10.3s4.3,5.5,7,7.6,5.6,3.6,8.8,4.7c3.2,1,6.4,1.6,9.5,1.6s4.8-.2,7-.7,4.3-1.1,6.3-1.9,3.7-1.7,5.4-2.8c1.6-1,3.1-2.1,4.3-3.3,0,0,0-.1.1-.1.6-.6,1.3-1.1,1.9-1.4s1.2-.5,1.9-.5,1,.2,1.6.5,1.2.9,1.8,1.6c1.5,1.8,2.7,3.3,3.7,4.4,1,1.2,1.9,2.2,2.5,3s1.1,1.5,1.4,2.1.4,1.2.4,1.8c-.2,1.7-1.2,3.2-3.3,4.7M417.4,273.1c-3.2,0-6.3.6-9.3,1.7s-5.8,2.7-8.3,4.7-4.7,4.3-6.5,7c-1.9,2.7-3.2,5.6-4.1,8.7h57.2c-.9-3.3-2.2-6.3-3.9-9s-3.9-5.1-6.4-7-5.3-3.5-8.5-4.6c-3.1-1-6.5-1.5-10.2-1.5"/>
  <path class="cls-3" d="M483.5,255.7c1.4-.7,3.1-1,5.1-1h8.2c1.6,0,2.7.5,3.5,1.5.8,1,1.3,2.2,1.5,3.4l.9,7.8c1.2-1.8,2.7-3.6,4.3-5.3s3.5-3.2,5.8-4.5c2.2-1.3,4.8-2.3,7.8-3.1s6.5-1.2,10.5-1.2,7.2.4,10.3,1.1c3.1.7,5.8,1.8,8.3,3.2s4.7,3.2,6.7,5.3,3.8,4.5,5.4,7.2c1.3-2.5,3-4.9,5.2-7s4.8-3.9,7.6-5.4c2.9-1.5,6-2.6,9.5-3.4s7-1.2,10.8-1.2c6.4,0,11.9,1.2,16.8,3.5,4.8,2.3,8.8,5.5,12.1,9.5s5.7,8.8,7.3,14.1,2.5,11.1,2.5,17.3v53.9c0,1.9-.5,3.4-1.4,4.4s-2.2,1.5-4,1.5h-12.3c-2.2,0-3.6-.4-4.3-1.2-.7-.8-1.1-2.2-1.1-4.3v-54.2c0-2.9-.4-5.6-1.2-8.3-.8-2.7-2.1-5.1-3.8-7.1-1.7-2.1-3.8-3.7-6.4-5-2.6-1.3-5.6-1.9-9.2-1.9s-5.7.5-8.2,1.6c-2.5,1-4.7,2.6-6.5,4.5-1.8,2-3.3,4.3-4.3,7.1-1,2.8-1.6,5.9-1.6,9.2v53.8c0,3.9-1.8,5.8-5.2,5.8h-12.4c-2.2,0-3.6-.4-4.3-1.2s-1-2.2-1-4.3v-54.1c0-2.8-.4-5.5-1.2-8.2s-2-5-3.6-7.1c-1.7-2.1-3.8-3.8-6.3-5.1-2.6-1.3-5.7-1.9-9.2-1.9s-5,.5-7.4,1.4c-2.5.9-4.7,2.3-6.8,4.1-2,1.8-3.7,4-5,6.5-1.3,2.6-2,5.5-2,8.8v56.4c0,1.4-.5,2.5-1.4,3.4s-2.1,1.3-3.5,1.3h-13.3c-1.8,0-3.1-.4-3.9-1.2-.8-.8-1.2-2-1.2-3.6v-93c-.2-1.9.5-3.1,1.9-3.8"/>
  <path class="cls-3" d="M648.1,259.6c0-1.4.4-2.6,1.2-3.5s2-1.4,3.5-1.4h13.4c.6,0,1.2.1,1.8.4s1.2.6,1.7,1.1.9,1,1.2,1.6.5,1.2.5,1.9v92.8c0,3.2-1.7,4.9-5.1,4.9h-13.4c-3.2,0-4.8-1.6-4.8-4.9v-92.9h0Z"/>
  <path class="cls-3" d="M689,257c.7-.9,1.3-1.4,1.9-1.6.4-.4,1.1-.7,1.9-.7h10.6c1.6,0,2.7.5,3.5,1.5.8,1,1.3,2.2,1.5,3.4l.9,8.6c1.2-1.8,2.8-3.6,4.6-5.4s3.9-3.4,6.4-4.8,5.3-2.5,8.5-3.4,6.8-1.3,10.8-1.3c6.4,0,12,1.1,17,3.4,5,2.3,9.1,5.4,12.5,9.4s6,8.7,7.7,14.1c1.8,5.4,2.6,11.2,2.6,17.4v53.9c0,1.9-.5,3.4-1.4,4.4s-2.2,1.5-4,1.5h-12.3c-2.2,0-3.6-.4-4.3-1.2-.7-.8-1.1-2.2-1.1-4.3v-53.9c0-2.9-.5-5.6-1.5-8.4-1-2.7-2.4-5.2-4.2-7.3-1.9-2.2-4.2-3.9-6.9-5.2s-5.9-1.9-9.5-1.9-5,.5-7.7,1.5-5.1,2.4-7.3,4.2-4,4-5.5,6.7c-1.5,2.6-2.2,5.6-2.3,8.9v52.4c0,1,0,2-.2,3.1,0,1-.3,1.9-.7,2.8s-.8,1.5-1.5,1.9c-.7.5-1.5.7-2.5.7h-13.3c-1.8,0-3.1-.4-3.9-1.2-.8-.8-1.2-2-1.2-3.6v-93c0-.9.3-1.7.9-2.6"/>
  <path class="cls-3" d="M828.8,357.3c-4.3,0-8.2-.7-12-1.9s-7-3-9.8-5.4-5-5.2-6.6-8.6-2.4-7.3-2.4-11.7v-54.7h-9.3c-1.6,0-2.7-.4-3.5-1-.8-.7-1.2-1.9-1.2-3.5v-11.5c0-1.6.4-2.6,1.2-3.3.8-.6,2-1,3.5-1h9.3v-17c0-1.1.3-1.9,1-2.5s1.7-1.2,3.1-1.7c.9-.3,2-.7,3.3-1.2s2.6-.9,4-1.3c1.4-.4,2.7-.8,4-1.1s2.4-.4,3.2-.4c1.7,0,2.8.5,3.3,1.4s.8,2.1.8,3.6v20.2h11.6c1.4,0,2.5.4,3.2,1.1.8.7,1.1,1.9,1.1,3.4v11c0,1.7-.4,3-1.1,3.7s-1.8,1.1-3.2,1.1h-11.6v52.4c0,3.6.7,6.1,2.1,7.7,1.4,1.6,3.7,2.4,6.8,2.4s2,.4,2.7,1.2c.7.8,1,1.8,1,2.9v11.2c0,1.4-.4,2.5-1.2,3.3s-1.9,1.2-3.3,1.2"/>
  <path class="cls-3" d="M659.8,214.8c-18.4,0-18.5,28.6,0,28.6s18.4-28.6,0-28.6"/>
  <path class="cls-1" d="M893.4,188v63c22.5,0,40.8-18.2,41-40.7v-22.3h-41Z"/>
  <path class="cls-3" d="M975,147.4c-22.4,0-40.5,18.1-40.5,40.5h40.5v-40.5"/>
  <path class="cls-2" d="M934.5,141v47h-93.9c0-25.9,21-46.9,46.9-46.9h47Z"/>
</svg>