<svg width="115" height="26" viewBox="0 0 115 26" fill="none" xmlns="http://www.w3.org/2000/svg">
<path d="M0.508789 0.739258H35.0248L20.9865 25.1355H16.1154L9.65502 9.06643H14.612L19.2385 20.2449L27.8422 4.63008H2.61056L0.508789 0.739258Z" fill="#81EBAB"/>
<path d="M80.5438 13.4909C80.8719 12.5687 81.3462 11.7622 81.9689 11.0772C82.5916 10.3922 83.3299 9.86202 84.1803 9.48869L84.182 9.48792L84.1837 9.48718C85.0579 9.11252 86.0185 8.92863 87.0593 8.92863C88.1433 8.92863 89.1001 9.14341 89.9132 9.5922C90.6005 9.96268 91.1764 10.4721 91.6399 11.1143L95.1324 8.33005C94.4684 7.3265 93.5181 6.53875 92.2637 5.97011C90.874 5.3401 89.2683 5.01937 87.4375 5.01937C85.583 5.01937 83.9004 5.31252 82.3847 5.89245C80.885 6.47369 79.5975 7.29592 78.5169 8.35794L78.5155 8.35927L78.5141 8.3606C77.4331 9.40439 76.5931 10.6445 75.9943 12.0854C75.3974 13.5219 75.0963 15.0943 75.0963 16.8078C75.0963 18.5015 75.4954 19.9827 76.2829 21.2651C77.0708 22.5289 78.1901 23.5234 79.6559 24.2472C81.1377 24.9693 82.8839 25.3377 84.9063 25.3377C86.6839 25.3377 88.2891 25.0637 89.727 24.5225C91.0345 24.0127 92.2085 23.1796 93.2485 22.0113L90.4522 19.2628C89.7819 19.9653 89.0484 20.4946 88.25 20.8396C87.3617 21.2319 86.4301 21.4284 85.4591 21.4284C84.38 21.4284 83.4205 21.2349 82.5937 20.8321L82.5876 20.8291L82.5817 20.826C81.7786 20.4033 81.1464 19.8163 80.6963 19.0661L80.6926 19.06L80.6891 19.0537C80.2608 18.2828 80.053 17.4039 80.053 16.4296C80.053 15.3769 80.2149 14.396 80.5438 13.4909Z" fill="#81EBAB"/>
<path fill-rule="evenodd" clip-rule="evenodd" d="M34.5697 20.9735H43.916L44.7322 24.9303H49.5527L44.4016 5.42669H38.5505L27.2781 24.9303H32.2905L34.5697 20.9735ZM41.4516 9.02644L43.2176 17.588H36.5199L41.4516 9.02644Z" fill="#81EBAB"/>
<path d="M67.102 17.3102L69.4736 5.42669H74.2384L70.3377 24.9303H66.1923L59.0123 13.0146L56.6343 24.9303H51.8694L55.7701 5.42669H59.916L67.102 17.3102Z" fill="#81EBAB"/>
<path d="M101.045 21.3411L101.952 16.7549H111.019L111.694 13.3112H102.634L103.485 9.01591H113.756L114.484 5.42669H99.4206L95.5199 24.9303H110.966L111.716 21.3411H101.045Z" fill="#81EBAB"/>
</svg>
