<svg xmlns="http://www.w3.org/2000/svg" viewBox="0 0 502.89 254.37"><defs><style>.cls-1{fill:#fff;}.cls-2{fill:#feed25;}</style></defs><g id="Layer_2" data-name="Layer 2"><g id="Layer_2-2" data-name="Layer 2"><path class="cls-1" d="M70.43,146.55l-1.52-13.24h-.65c-5.86,8.25-17.15,15.63-32.13,15.63C14.85,148.94,4,134,4,118.76c0-25.4,22.58-39.3,63.18-39.08V77.51c0-8.68-2.38-24.32-23.88-24.32A52.3,52.3,0,0,0,15.94,61L11.59,48.42c8.69-5.65,21.28-9.34,34.52-9.34,32.14,0,40,21.93,40,43v39.3c0,9.12.44,18,1.74,25.18ZM67.61,92.93c-20.84-.44-44.51,3.25-44.51,23.66,0,12.38,8.25,18.24,18,18.24,13.68,0,22.36-8.68,25.4-17.59a19.94,19.94,0,0,0,1.09-6.08Z"/><path class="cls-1" d="M111,127c5.64,3.69,15.63,7.6,25.19,7.6,13.89,0,20.4-7,20.4-15.63,0-9.12-5.42-14.11-19.54-19.32-18.89-6.73-27.79-17.16-27.79-29.75,0-16.93,13.68-30.83,36.26-30.83,10.64,0,20,3,25.84,6.51l-4.78,13.9a40.82,40.82,0,0,0-21.49-6.08c-11.29,0-17.59,6.51-17.59,14.33,0,8.69,6.3,12.59,20,17.8,18.23,6.95,27.57,16.07,27.57,31.7,0,18.46-14.33,31.48-39.3,31.48-11.51,0-22.14-2.82-29.53-7.16Z"/><path class="cls-1" d="M219.37,11.29V41.47h27.36V56H219.37v56.66c0,13,3.69,20.41,14.33,20.41a42.59,42.59,0,0,0,11.07-1.3l.87,14.33c-3.69,1.52-9.55,2.6-16.93,2.6-8.91,0-16.07-2.82-20.63-8-5.43-5.64-7.38-15-7.38-27.35V56H184.41V41.47H200.7V16.28Z"/><path class="cls-1" d="M286.24,11.94c.22,6.52-4.56,11.73-12.16,11.73a11.36,11.36,0,0,1-11.51-11.73A11.64,11.64,0,0,1,274.51,0C281.68,0,286.24,5.21,286.24,11.94ZM265,146.55V41.47h19.11V146.55Z"/><path class="cls-1" d="M312.51,74.25c0-12.37-.22-23-.87-32.78h16.72L329,62.1h.87c4.77-14.12,16.28-23,29.09-23a20.89,20.89,0,0,1,5.43.65v18a28.93,28.93,0,0,0-6.51-.65c-13.47,0-23,10.21-25.62,24.54a53,53,0,0,0-.87,8.9v56H312.51Z"/><path class="cls-1" d="M10.35,199.87l10.46,29.95a137.06,137.06,0,0,1,4.29,13.65h.33c1.22-4.4,2.76-8.81,4.52-13.65L40.3,199.87H50.43L29.51,253.16H20.26L0,199.87Z"/><path class="cls-1" d="M63.86,228.28c.22,13.1,8.59,18.49,18.28,18.49A35,35,0,0,0,96.89,244L98.54,251c-3.41,1.54-9.24,3.3-17.72,3.3-16.41,0-26.21-10.79-26.21-26.87s9.47-28.73,25-28.73c17.39,0,22,15.3,22,25.1a36.71,36.71,0,0,1-.33,4.52Zm28.41-6.94c.11-6.17-2.53-15.75-13.43-15.75-9.8,0-14.1,9-14.87,15.75Z"/><path class="cls-1" d="M113.63,214.29c0-5.5-.11-10-.44-14.42h8.59l.55,8.81h.22c2.64-5.07,8.8-10,17.61-10,7.38,0,18.83,4.4,18.83,22.68v31.82H149.3V222.44c0-8.59-3.19-15.74-12.33-15.74a13.76,13.76,0,0,0-13,9.9,14,14,0,0,0-.66,4.52v32h-9.69Z"/><path class="cls-1" d="M186,184.56v15.31h13.87v7.38H186V236c0,6.61,1.87,10.35,7.26,10.35a21.56,21.56,0,0,0,5.62-.66l.44,7.27a23.72,23.72,0,0,1-8.59,1.32c-4.51,0-8.15-1.43-10.46-4.07-2.75-2.87-3.74-7.6-3.74-13.88V207.25h-8.26v-7.38h8.26V187.1Z"/><path class="cls-1" d="M255.33,238.63c0,5.5.11,10.35.44,14.53h-8.58l-.56-8.7h-.21a20.05,20.05,0,0,1-17.62,9.91c-8.37,0-18.39-4.62-18.39-23.34V199.87h9.69v29.51c0,10.13,3.08,17,11.89,17a14,14,0,0,0,12.77-8.8,14.26,14.26,0,0,0,.88-5v-32.7h9.69Z"/><path class="cls-1" d="M271.41,216.49c0-6.27-.11-11.67-.44-16.62h8.48l.33,10.46h.44c2.42-7.16,8.25-11.67,14.75-11.67a10.47,10.47,0,0,1,2.75.33v9.14a14.54,14.54,0,0,0-3.3-.33c-6.83,0-11.67,5.17-13,12.44a27.25,27.25,0,0,0-.44,4.51v28.41h-9.58Z"/><path class="cls-1" d="M311.71,228.28c.22,13.1,8.58,18.49,18.27,18.49A35.07,35.07,0,0,0,344.74,244l1.65,6.94c-3.41,1.54-9.25,3.3-17.73,3.3-16.4,0-26.2-10.79-26.2-26.87s9.47-28.73,25-28.73c17.4,0,22,15.3,22,25.1a36.71,36.71,0,0,1-.33,4.52Zm28.4-6.94c.11-6.17-2.53-15.75-13.43-15.75-9.8,0-14.09,9-14.86,15.75Z"/><path class="cls-1" d="M360.15,243.25a25.41,25.41,0,0,0,12.77,3.85c7.05,0,10.35-3.52,10.35-7.92,0-4.63-2.75-7.16-9.9-9.8-9.58-3.42-14.1-8.7-14.1-15.09,0-8.59,6.94-15.63,18.39-15.63a26.61,26.61,0,0,1,13.1,3.3l-2.42,7a20.75,20.75,0,0,0-10.9-3.09c-5.73,0-8.92,3.31-8.92,7.27,0,4.41,3.19,6.39,10.13,9,9.25,3.52,14,8.15,14,16.08,0,9.35-7.26,16-19.93,16a30.4,30.4,0,0,1-15-3.63Z"/><circle class="cls-2" cx="420.58" cy="44.44" r="26.03"/><circle class="cls-2" cx="476.86" cy="79.12" r="26.03"/><circle class="cls-2" cx="419.71" cy="113.58" r="26.03"/></g></g></svg>